<svg xmlns="http://www.w3.org/2000/svg" viewBox="0 0 96 96" role="img" aria-label="Rivus logo">
  <rect width="96" height="96" rx="18" fill="#ffffff"/>
  <path fill="#2cb7f2" d="M18 15h27c-5 5-8 12-9 22-1.1 9.8-7.2 20.2-8.2 31.2-.7 8.5 1.7 15.7 6.7 20.8H18V15Z"/>
  <path fill="#0b65a3" d="M31 15h29.5C78.5 15 91 27.1 91 44.1c0 13.9-8.6 24.2-23.1 29L91 91 58 77.2C43.1 71 35.4 60.6 35.4 47c0-6.2 1.8-12.6 2.1-18.1.3-6.6-1.8-10.9-6.5-13.9Z"/>
  <path fill="#ffffff" d="M23.2 15c12.9 5 19.6 14.3 18.4 26.5-.8 8.5-6.4 17.8-7.6 27.3-1 8.7 2.8 15.7 11 22.2H31c-7.8-6.8-11.5-14.4-10.7-22.9.9-10 6.8-19 8.1-28 1.5-10.5-.2-18.7-5.2-25.1Z"/>
</svg>
